<?xml version="1.0" encoding="UTF-8" standalone="no"?>
<!-- Created with Inkscape (http://www.inkscape.org/) -->

<svg
   version="1.1"
   id="svg1"
   width="656.18738"
   height="682.66669"
   viewBox="0 0 656.18738 682.66669"
   sodipodi:docname="man20b.svg"
   inkscape:version="1.3.2 (091e20ef0f, 2023-11-25)"
   xmlns:inkscape="http://www.inkscape.org/namespaces/inkscape"
   xmlns:sodipodi="http://sodipodi.sourceforge.net/DTD/sodipodi-0.dtd"
   xmlns="http://www.w3.org/2000/svg"
   xmlns:svg="http://www.w3.org/2000/svg">
  <defs
     id="defs1" />
  <sodipodi:namedview
     id="namedview1"
     pagecolor="#ffffff"
     bordercolor="#000000"
     borderopacity="0.25"
     inkscape:showpageshadow="2"
     inkscape:pageopacity="0.0"
     inkscape:pagecheckerboard="0"
     inkscape:deskcolor="#d1d1d1"
     showgrid="false"
     inkscape:zoom="0.9827586"
     inkscape:cx="348.00001"
     inkscape:cy="331.21053"
     inkscape:window-width="1920"
     inkscape:window-height="1011"
     inkscape:window-x="0"
     inkscape:window-y="0"
     inkscape:window-maximized="1"
     inkscape:current-layer="layer2" />
  <g
     inkscape:groupmode="layer"
     id="layer2"
     inkscape:label="Layer 1"
     transform="translate(-77.671824,-78.666669)"
     style="display:inline">
    <path
       style="fill:#000000"
       d="m 77.796447,759.28369 c -2.27589,-5.93087 26.690293,-25.3197 81.146863,-54.31653 33.13342,-17.64275 37.8601,-20.8524 39.11373,-26.56014 0.49209,-2.24048 4.13057,-7.5934 8.0855,-11.89538 6.21448,-6.7598 7.1908,-8.55108 7.1908,-13.1932 0,-2.95428 -1.52766,-9.10949 -3.39481,-13.67825 -3.85746,-9.43892 -5.83739,-22.08739 -5.89736,-37.67423 -0.0394,-10.24498 0.2444,-11.26328 6.66383,-23.90946 3.68775,-7.2648 8.69447,-15.64947 11.12605,-18.63261 8.29077,-10.17137 8.2878,-10.14065 2.24498,-23.25884 -10.45302,-22.69216 -8.82292,-33.17007 11.82359,-75.99947 7.29092,-15.1244 14.1442,-30.7989 15.2295,-34.83224 1.0853,-4.03333 2.33236,-16.33333 2.77125,-27.33333 1.40056,-35.10268 6.01228,-57.89418 15.74589,-77.8176 6.79532,-13.90911 7.39251,-20.0752 3.82024,-39.44452 -3.67109,-19.9051 -7.95051,-28.09221 -22.99057,-43.98411 -20.24631,-21.39302 -48.95282,-42.61032 -77.08049,-56.97104 -7.66585,-3.91384 -14.14312,-7.79787 -14.39393,-8.63118 -1.3562,-4.50587 25.79601,-7.32388 39.49679,-4.09919 9.01768,2.12244 11.36217,1.80798 21.50171,-2.88401 6.33794,-2.93284 19.06607,-3.80642 22.62909,-1.55313 1.65975,1.04965 1.71117,2.18049 0.33333,7.33205 -2.25148,8.41802 -2.05101,11.99859 1.00739,17.99356 3.50059,6.86172 9.60812,11.01267 17.28959,11.75076 8.25262,0.79297 13.2272,-3.12396 14.32061,-11.27589 1.64039,-12.23005 -2.68089,-20.13836 -15.49836,-28.36331 -3.58124,-2.29807 -6.87313,-5.12114 -7.31533,-6.27349 -0.99,-2.57989 7.63536,-11.11224 11.23337,-11.11224 4.3215,0 6.66697,-3.73669 6.66697,-10.62146 0,-6.46607 3.82069,-20.60291 7.18962,-26.60219 l 1.81027,-3.22366 9.83513,9.30898 c 14.37108,13.60228 15.8285,14.355 29.43071,15.20031 6.44869,0.40075 12.40729,1.41104 13.24133,2.24508 1.13303,1.13303 0.59333,3.09161 -2.1346,7.74647 -6.42604,10.9652 -6.02634,25.85126 0.93163,34.69688 3.59935,4.57583 14.94819,9.88637 21.16362,9.90323 18.46993,0.0501 31.47916,-16.13393 28.5689,-35.54095 -0.81031,-5.40353 -2.11826,-7.36528 -10.15005,-15.22369 -5.07094,-4.96147 -9.21989,-9.95235 -9.21989,-11.09086 0,-2.90225 4.84585,-5.73689 12.66667,-7.40952 12.29566,-2.62965 16.13963,-5.02472 17.94245,-11.17938 2.5972,-8.866656 10.53135,-22.209241 13.20668,-22.209241 3.48127,0 8.70173,6.142406 14.16508,16.666667 5.41753,10.436004 10.04232,15.333334 14.48001,15.333334 9.13051,0 24.87245,6.80525 24.87245,10.75238 0,0.52481 -3.22268,4.22878 -7.16151,8.23105 -8.02996,8.15928 -12.83849,18.72127 -12.83849,28.19987 0,16.73785 22.92957,28.24854 39.42428,19.79105 7.13306,-3.65739 14.69386,-12.16748 16.66988,-18.76284 1.97169,-6.58092 1.01767,-11.86227 -4.09409,-22.66456 -2.20004,-4.64918 -4.00007,-9.22571 -4.00007,-10.17007 0,-3.2992 3.72098,-4.73658 17.13479,-6.619 14.03432,-1.9695 16.3144,-2.99585 27.43854,-12.35111 2.882,-2.42372 6.64685,-4.40677 8.36634,-4.40677 3.78758,0 5.15448,3.11424 7.20979,16.42625 1.90135,12.31482 3.92594,16.13509 12.76039,24.07797 5.72717,5.14919 7.14984,7.22097 6.82889,9.94465 -0.32963,2.79733 -1.65159,3.88036 -7.07207,5.79389 -3.75441,1.32538 -8.52459,4.36063 -10.91976,6.94821 -10.51031,11.35462 -8.53243,31.23863 3.44914,34.6749 3.66019,1.04973 5.04332,0.66923 9.85166,-2.71019 6.34562,-4.45987 14.28562,-18.18443 14.28562,-24.69316 0,-2.18414 0.63193,-5.15193 1.40429,-6.5951 1.35313,-2.52834 2.50683,-2.59499 31.66667,-1.82951 16.64431,0.43694 31.76238,1.10777 33.59571,1.49074 l 3.33334,0.69631 -3.33334,2.70587 c -1.83333,1.48822 -7.83333,4.98233 -13.33333,7.76467 -19.7853,10.00901 -45.80152,31.33432 -63.27189,51.86354 -21.56064,25.33563 -25.27035,34.71883 -25.34541,64.10763 l -0.0494,19.33333 5.55428,11.40819 c 10.46691,21.49847 12.44572,34.12442 12.44572,79.41092 v 30.88906 l 8.00465,12.19041 c 13.62249,20.74591 24.14528,39.68917 26.89344,48.41392 4.19218,13.30919 4.68566,30.14483 1.27853,43.61821 -3.40504,13.46512 -3.4684,15.89521 -0.72099,27.65323 1.45824,6.24079 1.82503,11.37731 1.17224,16.41607 -2.36098,18.22384 -1.87027,21.08386 5.60485,32.66667 7.75704,12.01965 12.44925,24.48875 12.4023,32.95794 -0.0174,3.1398 -1.51463,9.30873 -3.32716,13.70873 -1.81253,4.4 -3.29829,8.72117 -3.30168,9.60261 -0.009,2.3527 8.64217,7.81528 33.32716,21.04346 40.16958,21.52606 80.3552,47.52053 90.04614,58.24724 3.88625,4.30162 4.43877,5.6216 3.26845,7.80838 -1.39628,2.60898 -4.22205,2.63164 -328.07003,2.63164 -292.65345,0 -326.743488,-0.21338 -327.448133,-2.04966 z"
       id="path1" />
    <path
       id="path2"
       style="fill:#ff0000"
       d="M 493.61909 600.76042 C 489.65643 600.77992 483.66395 604.47827 473.96284 612.17448 C 460.62946 622.75228 450.27682 628.31156 436.61909 632.23112 C 427.70191 634.79022 422.79337 635.2848 405.99995 635.30729 C 377.51182 635.34549 368.87782 632.38343 332.70307 610.16667 C 319.83464 602.26352 317.88722 601.43804 316.51753 603.3112 C 314.1296 606.57689 313.19003 617.86718 314.00386 633.528 C 314.40957 641.33539 314.15641 650.33487 313.4394 653.52604 C 312.23788 658.87363 312.41247 659.61637 315.66792 663.01433 C 323.79331 671.49541 346.60082 684.96829 358.66596 688.41276 C 361.23262 689.14552 374.13395 690.13389 387.33393 690.61003 C 400.53392 691.08617 414.03394 691.59361 417.33393 691.73698 C 420.63393 691.88034 429.79495 691.38423 437.69136 690.63542 C 464.00266 688.14035 480.53641 680.69693 496.66596 664.08268 C 503.91841 656.6123 504.45193 655.68202 502.36909 654.13347 C 500.39424 652.6652 500.20372 651.0373 501.00776 642.54558 C 502.28299 629.07747 501.80479 612.80034 499.97065 607.24284 C 498.55594 602.95622 496.70115 600.74525 493.61909 600.76042 z M 520.41011 660.66667 L 509.20503 668.17058 C 473.50175 692.08229 432.59833 702.34995 392.23628 697.5319 C 385.13947 696.68475 376.93328 695.72743 373.99995 695.403 C 371.06662 695.07857 367.76596 694.5739 366.66596 694.2819 C 365.56597 693.9899 362.86596 693.2896 360.66596 692.72722 C 348.92822 689.7267 337.13693 683.91073 319.99995 672.67058 C 315.23328 669.54412 309.86714 666.23104 308.07417 665.30729 C 301.19185 661.76148 256.211 666.82882 249.18159 671.94206 C 247.26494 673.33623 243.36559 674.90837 240.51557 675.43425 C 233.62832 676.70508 205.43145 688.1005 180.59761 699.65104 C 151.4186 713.22258 103.41296 741.11675 88.898387 752.93229 L 85.128855 756.00065 L 405.5644 755.96354 L 725.99995 755.92839 L 721.33393 751.97331 C 718.76727 749.79812 713.36726 745.78381 709.33393 743.05339 C 705.30061 740.32297 700.79729 737.05168 699.32612 735.78386 C 697.85495 734.51604 692.15365 731.23379 686.65815 728.48893 C 681.16266 725.74407 675.76596 722.60151 674.66596 721.50651 C 669.13365 715.99936 631.25642 695.19747 615.99995 689.28776 C 613.43329 688.29354 609.784 686.35961 607.89057 684.98893 C 605.99714 683.61826 603.59649 682.34772 602.55659 682.16667 C 601.5167 681.98563 598.56662 680.52929 595.99995 678.92839 C 583.25715 670.98037 548.48608 661.19638 531.87104 660.88347 L 520.41011 660.66667 z " />
    <path
       id="path3"
       style="fill:#ffeeaa"
       d="M 456.72846 304.35417 C 448.65723 304.30487 439.76286 304.31974 430.35151 304.40104 C 417.80303 304.50942 404.33339 304.73862 390.66596 305.0944 C 333.81544 306.57431 329.92636 307.14581 320.19526 315.47526 C 310.529 323.74921 307.11201 335.95858 302.75581 377.7819 C 299.06265 413.23929 299.14341 424.32301 303.19136 436.44206 C 307.70111 449.94379 308.90362 455.68658 311.30073 475.20768 C 316.60891 518.43568 328.09401 551.413 343.38276 567.32487 C 351.49811 575.77097 365.6093 583.20173 377.33393 585.20183 C 385.21301 586.54589 408.82427 585.9604 429.33393 583.91276 C 448.34561 582.01466 455.32778 580.24857 462.30464 575.57487 C 470.71255 569.94254 476.76878 561.45906 482.60346 547.13542 C 486.26753 538.14047 488.26511 534.92304 491.00386 533.61003 C 494.89593 531.74408 496.95972 526.40418 500.59565 508.80143 C 503.60567 494.22903 506.94293 466.61478 506.09956 463.25456 C 505.54231 461.03427 504.6441 460.43021 502.67182 460.94597 C 499.04928 461.89326 499.21263 460.92336 505.23042 445.80729 C 508.10763 438.57998 510.8579 429.36602 511.34175 425.33268 C 512.28189 417.4955 510.14992 373.84892 507.85737 354.00065 C 505.87958 336.87749 500.4562 307.9237 498.94331 306.41081 C 497.75424 305.22174 480.94218 304.50211 456.72846 304.35417 z M 469.53511 342.78972 C 471.5418 342.76952 473.35226 342.78959 474.87886 342.85417 C 484.79361 343.27328 486.93564 343.82193 491.78315 347.18229 C 502.16551 354.37953 499.43354 355.99618 476.89057 356.00651 C 460.85676 356.01351 451.58044 357.44306 449.89839 360.16472 C 448.37571 362.62844 451.18347 363.94002 463.96284 366.72917 C 481.07007 370.46288 487.71913 373.61374 495.8437 381.8405 L 502.78901 388.8737 L 497.57417 390.4362 C 491.44392 392.27287 485.33393 396.74544 485.33393 399.39518 C 485.33393 402.58783 477.09686 405.73641 467.0312 406.38933 C 455.27819 407.15166 452.96193 405.90039 445.33589 394.67058 C 442.34669 390.26878 438.99286 386.66667 437.88276 386.66667 C 434.11325 386.66667 431.99995 395.12307 431.99995 410.21159 C 431.99995 422.75327 431.77229 424.19749 430.14448 421.97136 C 428.58166 419.83406 427.95574 419.71019 426.17964 421.18425 C 425.01969 422.14692 423.71551 425.12515 423.2812 427.80143 C 422.84689 430.47775 422.02006 433.86605 421.44331 435.33268 L 420.39448 438.00065 L 419.55073 435.33268 C 417.87794 430.04567 416.04602 407 416.02339 390.95573 C 416.00229 376.00785 416.29727 373.99129 419.40815 367.85222 C 421.28281 364.15277 423.17281 358.12293 423.60737 354.45378 C 424.23668 349.14026 425.01341 347.54913 427.42182 346.63347 C 431.75674 344.98534 455.4881 342.93141 469.53511 342.78972 z M 351.01753 342.8112 C 363.23826 342.846 378.90166 344.91524 385.49018 347.55143 C 391.70722 350.039 393.11677 353.89222 390.87495 362.27409 C 390.02697 365.44459 389.33393 370.88976 389.33393 374.37565 C 389.33393 383.18513 381.93871 394.14695 370.13276 402.83854 C 364.55519 406.94479 364.69218 406.92691 352.66596 405.18034 C 342.26113 403.66924 335.22342 401.21328 328.8144 396.85808 C 325.96206 394.91979 323.11142 393.33268 322.48042 393.33268 C 320.27455 393.33268 321.36022 388.88364 324.60346 384.63151 C 330.53201 376.8588 341.14196 371.0115 354.83198 367.97331 C 361.7081 366.44732 368.20677 364.33387 369.27534 363.27604 C 373.27066 359.32089 368.72335 358.22016 342.35737 356.75847 C 326.78452 355.89513 316.74396 354.80887 316.86323 354.00065 C 316.97144 353.26732 321.13537 350.60287 326.11714 348.08073 C 333.66992 344.25697 336.97804 343.4014 346.02729 342.92643 C 347.59611 342.84413 349.27171 342.80623 351.01753 342.8112 z M 463.26557 371.04362 C 461.14477 371.04562 459.06306 371.53863 455.87104 372.58268 C 448.66109 374.94094 438.66596 380.90233 438.66596 382.8444 C 438.66596 385.09393 443.54109 383.95631 447.99995 380.66667 C 450.73953 378.64547 454.30834 377.33268 457.06636 377.33268 C 463.5744 377.33268 476.83133 381.00014 483.873 384.7487 C 489.97623 387.99771 493.1094 387.47916 491.57221 383.47331 C 490.58215 380.89321 476.90653 373.93572 468.82612 371.90104 C 466.58724 371.33729 464.91509 371.04207 463.26557 371.04362 z M 352.49409 374.80925 C 348.63634 374.80803 345.97524 375.43818 342.49604 376.97722 C 336.49776 379.63054 326.66596 387.3291 326.66596 389.3737 C 326.66596 389.97752 332.51597 387.82515 339.66596 384.5905 C 347.24343 381.16245 354.61383 378.72255 357.33393 378.74089 C 359.91192 378.75829 365.28282 380.5391 369.33393 382.7194 C 373.36727 384.89013 378.01597 386.6665 379.66596 386.66667 C 390.42734 386.66767 369.59171 376.03528 356.82417 375.01042 C 355.19765 374.87986 353.78001 374.80965 352.49409 374.80925 z M 421.21675 448.95378 C 422.36771 448.96178 423.27149 452.17685 423.72651 458.46745 C 424.23558 465.50523 423.97555 466.53139 421.18354 468.48698 C 416.16101 472.00492 414.32301 471.3295 415.32026 466.33268 C 415.79592 463.94938 417.0834 458.77069 418.18159 454.82292 C 419.27752 450.88324 420.32154 448.94784 421.21675 448.95378 z M 445.34565 470.6862 C 445.85186 470.7013 446.368 471.33859 447.35151 472.61198 C 448.46139 474.049 449.18507 475.849 448.95893 476.61198 C 448.20564 479.1535 436.7761 483.87565 427.99995 485.27018 C 418.29526 486.81229 392.14137 486.91051 385.99995 485.42839 C 376.80845 483.2102 373.09844 478.75386 375.97261 473.38347 C 377.79812 469.97241 379.29403 469.9608 382.66596 473.33268 C 384.13262 474.79934 387.08013 476.00065 389.21479 476.00065 C 391.34945 476.00065 396.90011 477.19188 401.54878 478.64909 C 412.36654 482.04011 414.79692 481.99691 419.45307 478.33268 C 422.49082 475.9421 425.11378 475.29941 432.36714 475.16276 C 439.55045 475.02743 441.8776 474.46392 443.40229 472.49479 C 444.34391 471.27872 444.83944 470.67113 445.34565 470.6862 z M 409.64839 505.7487 C 416.85227 505.87489 424.3353 507.31 433.623 510.00261 C 439.78341 511.78855 448.26325 513.65505 452.46675 514.14909 C 457.92963 514.79114 460.48807 515.75381 461.4355 517.52409 C 462.58758 519.67684 462.24751 520.00065 458.83393 520.00065 C 456.19185 520.00065 452.6344 521.85428 447.96284 525.66667 C 436.04744 535.3906 432.83154 537.24505 425.45893 538.64323 C 415.78984 540.47694 390.68098 540.3097 387.33393 538.38933 C 385.86727 537.54781 380.76659 533.87438 375.99995 530.22722 C 371.23328 526.58003 365.38328 522.77879 362.99995 521.77995 C 355.96271 518.83067 358.42963 514.69494 367.26753 514.6237 C 370.2375 514.5998 375.96662 513.36016 379.99995 511.86979 C 391.58536 507.58882 400.38625 505.58645 409.64839 505.7487 z M 413.47261 549.80534 C 416.95122 549.85504 420.15462 551.07218 423.19721 553.4655 C 429.59154 558.49525 426.62149 560.08269 417.33393 556.59831 C 414.43429 555.51046 410.01546 555.13383 405.66596 555.60612 C 401.81599 556.02417 398.66596 555.95093 398.66596 555.44206 C 398.66596 554.93319 401.42763 553.29439 404.80268 551.80143 C 407.89522 550.43348 410.767 549.7667 413.47261 549.80534 z M 492.14448 568.05339 C 489.7976 568.15918 485.58561 571.40856 478.59565 578.06706 C 460.559 595.2484 447.07516 599.37086 412.66596 598.2194 C 391.18961 597.50073 364.65278 593.20314 353.87495 588.69987 C 351.38188 587.6582 344.82844 582.53406 339.31245 577.31315 C 326.99434 565.65404 323.55944 565.15475 322.92964 574.93034 C 322.44511 582.4511 324.3175 586.43055 332.748 595.80729 C 346.28146 610.85977 367.57205 622.74336 389.33393 627.39128 C 402.58864 630.22222 433.01353 629.1503 443.20698 625.49284 C 447.53719 623.93914 453.04693 621.1684 455.45112 619.33464 C 457.85531 617.50087 460.42284 616.00065 461.15815 616.00065 C 463.75914 616.00065 489.08466 589.91964 491.85542 584.38737 C 493.40172 581.29992 494.66596 576.34991 494.66596 573.38737 C 494.66596 569.79212 493.96983 567.97111 492.14448 568.05339 z " />
    <path
       id="path4"
       style="fill:#ffd5d5"
       d="M 410.26557 512.24089 C 407.7047 512.24188 405.07697 512.30138 402.42182 512.42839 C 386.49982 513.18999 380.33846 514.64475 381.95503 517.26042 C 382.28089 517.78767 391.99099 518.33759 403.53315 518.48112 C 415.07531 518.62466 424.67221 518.89363 424.85932 519.08073 C 425.90021 520.12162 439.94971 519.82741 440.61518 518.75065 C 442.83844 515.15334 428.19173 512.23397 410.26557 512.24089 z M 387.66596 522.12565 C 377.60583 522.10555 375.81282 522.76936 376.38667 524.49089 C 377.25224 527.08762 385.75282 531.25159 391.98237 532.12956 C 400.85287 533.37974 403.30422 533.36581 418.58393 531.98893 C 432.88321 530.7004 436.94603 529.0192 434.66792 525.33268 C 433.66519 523.71003 428.45692 523.18374 407.06245 522.54167 C 398.51998 522.2853 392.23875 522.13479 387.66596 522.12565 z " />
    <path
       id="path5"
       style="fill:#00ffff"
       d="M 479.15815 390.66667 C 476.97279 390.66667 473.1509 392.16733 470.66596 394.00065 C 464.89291 398.25987 460.69761 398.22346 456.67182 393.87956 C 452.37669 389.24503 449.99593 390.82326 452.85737 396.40886 C 454.057 398.75057 455.70513 401.10837 456.51948 401.64714 C 459.11741 403.36594 465.83353 402.68575 471.33393 400.14714 C 474.26727 398.79332 478.12056 396.10651 479.89839 394.17643 L 483.13081 390.66667 L 479.15815 390.66667 z M 368.69526 392.12565 C 367.31855 392.21827 365.15977 393.05605 362.03511 394.64909 C 356.07847 397.68597 348.28984 397.35692 345.80854 393.96354 C 344.01891 391.51609 337.18229 391.72053 336.35346 394.24675 C 334.71828 399.23068 356.53833 402.04028 366.04292 398.06901 C 368.58604 397.00642 370.66596 395.20642 370.66596 394.06901 C 370.66596 392.68618 370.07197 392.03303 368.69526 392.12565 z " />
    <path
       id="path6"
       style="fill:#ff9955"
       d="M 288.70307 316.57878 C 288.31385 316.57694 287.74907 316.76623 286.99995 317.17253 C 282.58473 319.56716 274.66596 329.48782 274.66596 332.62565 C 274.66596 334.44659 280.08212 330.3283 284.54878 325.11003 C 288.77641 320.17099 290.38972 316.58675 288.70307 316.57878 z M 519.79096 326.66667 C 518.16003 326.66667 518.34955 327.72814 521.70893 337.33268 C 524.44869 345.16567 524.72465 348.2439 524.57612 369.33268 C 524.48572 382.16601 523.62936 402.56668 522.67182 414.66667 C 521.02239 435.50963 521.08618 437.74403 523.88471 457.15495 C 528.03588 485.94781 527.98804 486.93244 522.1855 492.40495 L 517.39057 496.92643 L 518.22846 485.12956 C 518.71452 478.28197 518.5551 473.33268 517.84761 473.33268 C 517.17725 473.33268 515.28961 479.78335 513.65425 487.66667 C 512.01888 495.54999 510.30778 503.35066 509.85151 505.00065 C 508.82913 508.69781 512.50988 509.23444 514.49995 505.67839 C 515.21472 504.40116 516.24043 503.79582 516.77925 504.33464 C 517.31807 504.87345 516.0394 510.8685 513.93745 517.6569 C 511.8355 524.44531 510.20651 532.39935 510.31831 535.33268 C 510.43012 538.26601 510.74824 550.86603 511.02534 563.33268 C 511.39622 580.01879 512.13264 587.84813 513.81636 593.00261 C 515.90823 599.40662 515.92966 600.52096 514.05268 606.04948 C 511.39588 613.8749 511.44274 623.50219 514.17378 630.83268 C 515.36927 634.04155 516.41991 638.15952 516.50776 639.98308 C 516.77275 645.48425 526.66596 648.75596 526.66596 643.34245 C 526.66596 642.33446 524.9205 638.6206 522.78706 635.08854 C 519.71978 630.01045 518.77937 626.62747 518.29292 618.92253 C 517.89408 612.60516 518.21636 608.61902 519.20893 607.58854 C 520.05095 606.71437 522.39386 602.28151 524.41401 597.73698 C 528.57521 588.37596 528.43668 586.81242 522.26167 573.33268 C 519.21486 566.68168 517.94398 561.25769 516.79487 550.00651 L 515.29682 535.3444 L 519.62495 524.67253 C 522.00541 518.80273 524.34591 511.11209 524.82612 507.58268 C 525.30632 504.05328 526.16846 501.65262 526.74214 502.2487 C 527.90418 503.4561 525.26198 522.65148 522.09565 536.00065 C 518.87915 549.56138 519.39469 555.85571 524.85542 569.69597 C 529.0101 580.22606 529.69946 583.48959 529.63862 592.33268 C 529.59952 598.01601 529.79247 602.66667 530.06831 602.66667 C 530.34416 602.66667 532.09135 600.427 533.95112 597.69011 C 538.51363 590.97578 538.43116 582.12549 533.67182 567.73503 C 528.60977 552.42923 528.79819 537.00664 534.36128 511.10222 C 538.87143 490.10072 542.05407 481.97201 540.6269 495.10026 C 540.16256 499.37172 538.25221 508.97042 536.38081 516.43229 C 531.60038 535.49345 531.79135 548.03377 537.17964 568.73893 C 541.88679 586.82677 541.95548 586.12776 533.498 606.88933 C 528.54687 619.04343 528.04529 627.51658 531.99995 632.1862 C 534.61599 635.27517 534.70242 635.28466 536.66596 632.74479 C 537.76645 631.3213 538.66596 629.15466 538.66596 627.92839 C 538.66596 626.70212 541.63217 621.68098 545.25581 616.77214 C 556.74267 601.2112 556.913 597.43978 547.15229 575.00261 C 537.67724 553.22208 537.84793 550.85552 551.39839 516.00065 C 554.1068 509.034 556.49638 500.63268 556.70893 497.33268 C 557.19297 489.8174 559.21974 490.03304 559.66987 497.64714 C 560.00809 503.36838 556.28557 515.44617 548.73042 533.14323 C 544.33406 543.44119 543.06851 553.7622 545.33979 560.80729 C 547.69987 568.12779 549.59442 570.30419 550.8437 567.12956 C 551.37669 565.77513 551.89409 562.56732 551.99409 560.00065 C 552.1411 556.22742 553.05096 558.01296 556.74214 569.33268 C 562.62271 587.36661 563.25631 588.31817 566.56245 584.04948 L 569.10542 580.76628 L 570.06831 585.89518 C 570.59744 588.71567 570.33366 594.99223 569.48237 599.8444 C 567.88629 608.94164 568.47223 613.20599 572.35346 620.74479 C 575.12998 626.13782 577.36148 634.66667 575.99604 634.66667 C 575.37869 634.66667 574.19706 632.61489 573.36909 630.10612 C 571.61637 624.79536 564.58952 614.66667 562.65815 614.66667 C 561.92941 614.66667 561.33393 615.80077 561.33393 617.1862 C 561.33393 620.04438 556.64708 626.41564 555.43354 625.20768 C 554.99592 624.77208 555.52817 621.89585 556.61518 618.81511 C 557.70213 615.73435 558.94548 610.09106 559.37886 606.27409 L 560.16596 599.33268 L 556.79292 607.26042 C 554.71994 612.13123 551.35531 617.01347 548.0644 619.92643 C 545.11898 622.53361 542.10047 626.35617 541.35542 628.42058 C 538.26225 636.99121 540.77062 645.33268 546.44136 645.33268 C 549.66555 645.33268 552.57856 650.36298 550.67964 652.65104 C 548.62914 655.12175 553.90427 658.66667 559.63081 658.66667 C 564.90546 658.66667 565.26757 656.44833 560.60346 652.71745 C 558.15408 650.75815 557.06451 648.41942 556.69331 644.33073 C 556.41023 641.21258 555.77178 637.31323 555.27534 635.66472 C 554.55522 633.27341 555.54729 633.79096 560.1855 638.22722 C 563.38298 641.28548 568.07809 644.621 570.61909 645.63933 C 574.95828 647.37828 575.24324 647.87131 575.28706 653.74479 C 575.31276 657.18428 574.73329 660.01776 573.99995 660.04167 C 570.47578 660.15656 578.40482 664.00065 582.16596 664.00065 C 585.31693 664.00065 586.71688 664.72252 587.33393 666.66667 C 588.46009 670.21489 590.1497 670.02746 593.94136 665.9362 C 598.07142 661.47977 601.47456 654.17073 602.30659 647.96745 C 603.16603 641.55983 600.99341 634.81616 594.58589 624.00065 C 590.90577 617.78882 588.99677 612.55964 587.8437 605.54167 C 586.19511 595.50779 584.29424 592.99016 580.65034 596.01433 C 577.69822 598.46436 578.24416 606.75249 581.79878 613.44011 C 583.52142 616.68105 587.42077 624.01615 590.46479 629.73893 C 594.77829 637.84835 595.99995 641.57881 595.99995 646.65104 C 595.99995 658.31774 593.15034 662.02994 585.38667 660.47722 C 580.15843 659.43157 579.64986 655.91142 584.30659 653.00847 C 586.35717 651.73016 589.04011 648.57475 590.26948 645.99675 L 592.50581 641.3112 L 583.55659 623.65495 C 578.63547 613.94462 574.62301 604.46749 574.63862 602.5944 C 574.65422 600.72131 576.52342 596.26092 578.79292 592.68229 C 585.13053 582.6889 585.59149 580.76203 586.77143 559.26042 C 587.37727 548.22025 588.50677 536.35369 589.28315 532.88933 C 590.42037 527.81484 590.30435 525.83207 588.68159 522.69401 C 587.57373 520.55164 586.66596 517.57014 586.66596 516.06706 C 586.66596 514.56397 586.14162 513.33268 585.49995 513.33268 C 583.62454 513.33268 582.67792 520.72562 583.97456 525.24675 C 584.83605 528.25059 584.59083 530.78356 583.08979 534.36979 C 581.50471 538.1568 581.21603 541.78418 581.87104 549.66667 C 582.83917 561.3174 581.51817 562.84881 577.84761 554.33268 L 575.40425 548.66667 L 574.94331 553.8737 C 574.68928 556.73768 575.49381 563.21611 576.73237 568.27018 C 577.97094 573.32426 578.74707 577.69689 578.45698 577.98698 C 578.16689 578.27708 576.07922 577.34161 573.81636 575.90886 C 570.3573 573.71874 569.5738 572.22488 568.89839 566.52214 C 568.45655 562.79148 567.02416 557.54786 565.71479 554.86979 C 563.80372 550.96104 562.47853 549.91808 558.99995 549.58268 C 553.84204 549.08538 553.65654 548.09186 557.78706 543.10222 C 559.50307 541.02929 561.5474 538.15669 562.33003 536.7194 C 563.56547 534.45054 563.8701 534.89049 564.64643 540.05339 C 565.57162 546.2062 568.63188 551.81404 570.20503 550.24089 C 570.69909 549.74683 570.30691 540.63878 569.33393 530.00065 C 568.36095 519.36253 567.92162 510.29968 568.35932 509.86198 C 570.28101 507.94029 572.0036 511.31583 572.04096 517.07878 C 572.09196 524.95107 574.10974 522.16869 576.08003 511.51042 C 578.42283 498.83704 573.58732 478.43952 567.80464 476.60417 C 563.92801 475.37377 553.33393 464.31636 553.33393 461.50065 C 553.33393 460.07161 551.32117 454.20013 548.86128 448.45183 C 542.00797 432.43702 536.68746 407.37953 539.74018 405.49284 C 540.66706 404.92 540.69336 400.98877 539.82221 393.32292 C 539.11443 387.09488 538.67789 378.99935 538.85151 375.33268 C 539.46495 362.37759 538.82007 357.68531 536.33393 357.028 C 534.81753 356.62708 533.15732 353.545 531.5937 348.22722 C 530.2704 343.72674 528.4704 339.27491 527.5937 338.33464 C 526.717 337.39437 524.85579 334.38596 523.45698 331.64714 C 522.05817 328.90833 520.40882 326.66667 519.79096 326.66667 z M 276.50971 339.02018 C 276.12021 338.92091 275.34677 339.77018 274.1894 341.55143 C 268.84055 349.78371 263.3192 372.60709 257.42378 410.86003 C 255.88171 420.86583 253.43035 432.50938 251.97651 436.73503 C 246.98056 451.25603 248.95798 452.90639 258.70893 442.35612 C 262.2555 438.51885 265.52454 435.74594 265.97261 436.19401 C 266.42067 436.64208 259.66339 444.13267 250.95698 452.83854 C 237.80568 465.98902 234.25664 470.42967 229.98628 479.08268 C 225.57367 488.02393 224.76374 491.06792 224.26362 500.59636 C 223.49415 515.25672 227.05875 526.5717 235.30659 535.653 C 238.47728 539.14407 241.48869 541.59271 241.998 541.0944 C 242.5073 540.59609 241.96541 535.97718 240.79487 530.83073 C 239.62433 525.6843 238.71938 519.19155 238.78315 516.403 C 238.87635 512.32633 239.3557 513.36871 241.23237 521.71745 C 242.51607 527.42824 244.19577 532.72968 244.96479 533.4987 C 245.94018 534.47409 248.71246 532.65786 254.13081 527.49284 C 258.79257 523.04903 262.25231 520.662 262.78511 521.52409 C 263.28059 522.32583 255.00073 531.58584 244.04487 542.48112 C 229.44882 556.99648 222.06963 565.5584 215.26362 575.87761 L 206.11128 589.75261 L 206.10542 605.87761 C 206.09942 619.35354 206.58516 623.27743 209.07026 629.77604 C 213.50185 641.36475 215.68117 645.05179 218.65229 645.99479 C 220.80719 646.67874 221.33393 648.00665 221.33393 652.75651 C 221.33393 656.0071 221.92073 658.66667 222.63862 658.66667 C 223.35651 658.66667 228.41354 657.16601 233.87495 655.33268 C 239.33634 653.49937 245.60189 652.00065 247.79878 652.00065 C 253.82257 652.00065 260.83517 643.18393 262.8144 633.1237 C 264.26156 625.76795 264.56214 625.33268 268.21479 625.33268 C 270.74417 625.33268 272.32483 624.52633 272.7812 623.00065 C 274.2566 618.06828 276.79137 614.20614 279.89253 612.16472 L 283.11714 610.04167 L 282.27339 615.24284 C 279.87421 630.02721 266.35614 646.99763 251.27729 654.15495 C 246.04931 656.63647 240.92394 658.68723 239.88667 658.71159 C 238.8494 658.73599 235.60124 660.52412 232.66792 662.6862 C 225.82884 667.72708 220.6976 670.25671 213.84175 671.9694 C 207.0746 673.65996 201.33393 678.00261 201.33393 681.43034 C 201.33393 684.43067 202.1812 684.54535 206.53706 682.13151 C 208.29862 681.15532 210.72534 680.61295 211.93159 680.92839 C 213.28926 681.28343 214.82261 680.20058 215.95503 678.08464 C 217.12869 675.89162 218.91708 674.66667 220.94526 674.66667 C 224.92674 674.66667 233.2075 670.49517 236.54096 666.80925 C 237.93795 665.26455 240.3716 664.00065 241.95112 664.00065 C 243.53063 664.00065 245.98857 663.11835 247.41206 662.04167 C 248.83556 660.96499 251.08843 660.06499 252.41792 660.04167 C 256.23644 659.97467 269.33188 653.08991 271.9355 649.77995 C 273.84034 647.35831 275.18815 646.91931 278.87886 647.51823 C 282.11515 648.04341 283.96551 647.64607 285.19331 646.16667 C 286.68107 644.37403 287.19875 644.34203 288.79487 645.93815 C 289.81994 646.96322 290.29648 648.74657 289.85346 649.90104 C 288.72407 652.84425 291.11945 652.5156 293.99995 649.33268 C 296.66533 646.38748 300.81974 645.792 301.63471 648.23698 C 301.92244 649.10015 302.78375 649.41878 303.54878 648.94597 C 305.47198 647.75736 305.83594 568.187 303.98237 554.14128 C 302.90218 545.95596 301.11294 540.37426 296.61128 531.14323 C 293.34191 524.43914 290.66596 518.04064 290.66596 516.92253 C 290.66596 515.80443 290.04226 514.68077 289.27925 514.42643 C 288.36272 514.12093 288.61358 510.85512 290.01753 504.80143 C 291.1863 499.76179 291.95286 494.07012 291.72261 492.153 C 291.39822 489.45215 290.30444 491.21912 286.86323 500.00065 C 277.08895 524.94343 267.07278 545.01199 259.03706 555.75456 C 252.46257 564.54366 254.57983 558.52733 263.02534 544.41862 C 275.03229 524.36036 274.92518 524.61561 275.40815 514.79948 C 275.64628 509.95962 277.37673 500.07279 279.25386 492.82878 C 282.74574 479.35324 283.61042 470.66667 281.45893 470.66667 C 279.90442 470.66667 263.88266 487.90855 256.98823 497.00065 C 254.06882 500.85065 251.45234 504.00065 251.17378 504.00065 C 248.79471 504.00065 252.42223 498.34757 261.95893 487.19987 C 280.99852 464.94401 283.99995 456.83958 283.99995 427.67253 C 283.99995 413.13493 284.44369 408.56205 286.10151 406.0319 C 289.18252 401.3297 291.92155 388.49679 291.79878 379.33268 C 291.73988 374.9327 291.4154 372.38333 291.08003 373.66667 C 290.43467 376.13619 288.62044 376.74896 287.4687 374.88542 C 287.08965 374.27209 287.94869 369.92079 289.37886 365.21745 C 292.56573 354.7369 292.86032 349.62723 290.14643 351.87956 C 287.05112 354.44846 282.93 365.53116 280.39839 378.09636 L 277.99995 390.00065 L 277.61323 379.00065 C 277.40024 372.95067 276.66556 368.00065 275.98237 368.00065 C 274.68752 368.00065 272.22446 375.90868 268.91987 390.66667 L 266.97846 399.33268 L 266.84956 392.66667 C 266.64805 382.29175 268.97475 368.59718 273.49018 353.5905 C 276.36277 344.04373 277.36665 339.23858 276.50971 339.02018 z M 276.57612 446.00065 L 274.49604 449.33268 C 273.35158 451.16602 270.67155 453.83441 268.54096 455.26237 C 266.41039 456.69033 261.71495 462.46206 258.10737 468.08854 C 251.07237 479.06057 244.09358 488.04394 244.03511 486.20378 C 244.01541 485.58289 247.19347 480.17659 251.09565 474.19011 C 257.80414 463.89839 265.92622 454.54657 273.28706 448.63933 L 276.57612 446.00065 z M 270.71284 520.00065 C 274.57192 520.00065 254.3509 545.78401 222.08784 582.00065 L 218.52534 586.00065 L 220.61518 581.69401 C 223.13451 576.50598 231.5876 565.94482 245.44917 550.66667 C 257.36911 537.52855 269.33393 522.72465 269.33393 521.11393 C 269.33393 520.5008 269.95371 520.00065 270.71284 520.00065 z M 287.01362 525.55339 C 287.86793 525.5019 289.14566 527.92928 291.37886 532.28581 C 295.20244 539.74489 296.14595 543.4567 297.46089 556.22331 C 299.6935 577.89961 299.835 628.26964 297.66596 628.99675 C 296.74932 629.30403 295.99995 631.00578 295.99995 632.778 C 295.99995 635.65015 295.41825 636.00065 290.64839 636.00065 L 285.29682 636.00065 L 287.47651 631.00065 C 292.35042 619.81295 294.75794 609.57906 295.52339 596.80143 C 296.29242 583.96416 294.34272 553.51689 292.43354 548.54167 C 291.59754 546.3631 291.46172 546.37902 290.52729 548.76433 C 289.97374 550.17736 289.47923 555.03395 289.42768 559.55729 C 289.31066 569.82755 288.62443 571.60745 283.83784 574.08268 C 281.63579 575.2214 279.99995 577.15671 279.99995 578.62175 C 279.99995 581.70674 277.06473 583.85905 276.23823 581.37956 C 275.91557 580.41159 273.64415 583.15381 271.19136 587.47526 C 267.25209 594.41566 266.82268 596.1146 267.51362 602.02995 C 268.24455 608.28764 267.97934 609.10407 263.48042 614.48893 C 260.83238 617.65842 258.66596 621.38199 258.66596 622.76237 C 258.66596 626.03894 252.40881 630.27473 250.45503 628.32097 C 249.46657 627.3325 249.85152 626.48242 251.748 625.46745 C 253.23377 624.67228 254.84549 622.22515 255.32807 620.028 C 255.81064 617.83084 257.68954 614.8653 259.50386 613.43815 C 263.67687 610.15566 265.82476 603.40057 263.34956 601.34636 C 262.05741 600.27397 261.3783 600.34558 260.78315 601.61198 C 260.33797 602.55926 260.28831 601.23334 260.67378 598.66667 C 261.05926 596.1 263.18547 591.6 265.39839 588.66667 C 274.34631 576.80577 283.43644 553.50695 284.6894 539.2194 C 285.51674 529.78522 285.91522 525.61958 287.01362 525.55339 z M 281.97846 533.6862 C 282.41162 533.68728 282.66596 534.01505 282.66596 534.73308 C 282.66596 537.17895 275.90075 549.01096 273.07026 551.51433 C 268.46323 555.58892 258.66596 569.45183 258.66596 571.89714 C 258.66596 573.14593 256.86596 575.89294 254.66596 578.00065 C 252.46598 580.10839 250.66596 582.52989 250.66596 583.38347 C 250.66596 584.23704 249.16726 587.7577 247.33393 591.20573 C 245.50062 594.65375 243.99995 598.231 243.99995 599.15495 C 243.99995 600.0789 242.58707 603.79609 240.86128 607.41667 C 236.74311 616.05627 236.0922 619.05651 235.85737 630.48112 C 235.66576 639.80268 234.16789 643.72355 232.47846 639.32097 C 232.01828 638.12172 231.94261 631.863 232.3105 625.41081 C 232.82432 616.39919 233.75628 612.17032 236.33393 607.17253 C 238.17951 603.59418 240.33919 598.26567 241.13276 595.33073 C 241.92633 592.39579 244.76412 586.39512 247.4394 581.99675 C 250.11468 577.59836 254.40736 570.09934 256.97846 565.33268 C 259.54957 560.56603 263.95258 554.42076 266.76362 551.67643 C 269.57466 548.93213 273.42797 544.03648 275.32612 540.79753 C 277.7738 536.62087 280.67901 533.68296 281.97846 533.6862 z " />
    <path
       id="path7"
       style="fill:#ffcc00"
       d="M 407.73432 86.934247 C 405.18541 86.443371 396.32245 97.44605 395.14057 102.56901 C 393.45456 109.87725 391.16056 111.70796 380.80268 114.01237 C 375.34088 115.22751 369.80468 117.00416 368.498 117.95964 C 366.30562 119.56274 366.66159 120.28827 373.123 127.35808 C 383.37068 138.57066 385.91436 144.11645 385.95112 155.33268 C 385.97692 163.19034 385.36482 165.78494 382.07612 171.73503 C 377.51238 179.99203 370.01485 185.96601 360.76948 188.71159 C 352.88737 191.05233 342.07127 191.15586 336.96089 188.94011 C 331.37415 186.51781 318.94643 173.55173 317.23237 168.35808 C 315.51035 163.14031 316.41956 152.61788 319.60151 140.96354 C 320.75823 136.7269 321.35148 132.90687 320.91987 132.47526 C 320.48826 132.04365 316.3855 132.35161 311.80268 133.15886 C 301.8838 134.90602 299.25008 133.70481 293.83003 124.9655 C 283.71455 108.65529 279.40986 109.53338 277.93745 128.20573 C 276.75173 143.24247 276.479 144.00065 272.28315 144.00065 C 268.54475 144.00065 258.66596 149.78136 258.66596 151.9694 C 258.66596 152.63344 262.22314 155.91343 266.57026 159.25847 C 286.00182 174.21071 288.06111 202.27075 270.40034 211.45964 C 268.42009 212.48997 265.55674 213.33268 264.03901 213.33268 C 259.89559 213.33268 237.8229 201.83521 236.66401 199.07292 C 236.10896 197.74989 235.35708 190.24119 234.99214 182.38737 C 234.45537 170.83585 233.8651 167.68732 231.90425 165.91276 C 229.63599 163.86001 228.98333 164.00802 221.74018 168.19401 L 213.99995 172.66667 L 194.33393 172.30925 C 183.51727 172.11244 174.69109 172.41178 174.72065 172.97526 C 174.75025 173.53873 182.40022 178.91098 191.72065 184.91276 C 212.70406 198.42479 238.12935 218.89799 259.99995 239.89323 C 270.76199 250.22453 277.37453 255.63914 278.66596 255.17839 C 279.76596 254.78595 287.86597 252.74038 296.66596 250.63151 C 324.50604 243.95978 332.69921 243.40524 401.99995 243.4987 C 468.29772 243.5881 485.7759 244.49286 517.71284 249.48698 L 536.56636 252.43425 L 548.52339 239.21745 C 575.01551 209.93043 601.49288 186.70513 620.83393 175.78972 C 624.77524 173.56538 627.99995 171.26808 627.99995 170.68425 C 627.99995 168.44252 621.40241 168.12711 614.1269 170.02214 C 604.64024 172.49311 602.58071 172.49228 597.81831 170.00847 C 590.31968 166.09766 585.2268 168.42458 583.24604 176.66667 C 579.44389 192.4877 564.53314 206.67079 551.70893 206.66472 C 546.04782 206.66172 538.90861 202.9816 535.47065 198.29362 C 531.776 193.25562 531.99277 182.75064 535.96479 174.3405 C 537.60797 170.86131 542.83584 163.82208 547.58003 158.69792 C 552.54979 153.33012 556.02054 148.44372 555.76948 147.16862 C 555.52981 145.95139 552.33816 143.38997 548.67768 141.47722 C 545.01722 139.56447 541.54837 137.4 540.9687 136.66667 C 540.38903 135.93334 540.29065 130.74946 540.74995 125.14714 C 542.20885 107.35191 538.31139 105.19167 525.45112 116.66667 L 517.23237 124.00065 L 505.24018 124.00065 C 490.81009 124.00065 490.17597 124.74927 495.17182 135.88151 C 503.42263 154.26675 495.82359 178.68455 479.37104 186.64909 C 472.02922 190.2032 457.54476 190.27882 449.89253 186.80339 C 439.70903 182.1783 430.41876 167.59217 430.27534 156.00065 C 430.16696 147.24102 432.68491 141.08434 440.69721 130.50847 C 444.61847 125.33259 447.51477 120.28794 447.13471 119.29753 C 446.40223 117.3887 444.43172 116.83789 430.748 114.72526 C 426.02593 113.99622 421.38305 112.62203 420.43159 111.67058 C 419.48013 110.71912 416.72171 104.85744 414.30073 98.645185 C 411.59445 91.700844 409.06502 87.190515 407.73432 86.934247 z M 411.33393 247.42058 C 351.30847 247.41658 346.13263 247.60433 327.99995 250.44792 C 301.48545 254.60592 278.37069 259.72672 276.16401 261.93229 C 273.90711 264.18808 275.12325 272.27886 278.08979 274.74089 C 279.77027 276.13556 280.83762 275.71002 284.45112 272.20768 C 286.94623 269.78934 290.18547 268.00719 292.0644 268.01628 C 299.75962 268.05348 317.33393 274.50956 317.33393 277.29948 C 317.33393 280.9486 297.37986 291.92587 288.84565 292.97136 C 285.81372 293.34278 282.58263 294.59055 281.66596 295.74479 C 278.40315 299.85331 280.51844 313.33268 284.42573 313.33268 C 285.42947 313.33268 294.97342 311.56622 305.63471 309.4069 C 346.5187 301.12634 369.1043 299.41816 457.33393 297.93425 C 486.30054 297.44706 514.49995 296.64957 519.99995 296.16081 L 529.99995 295.27214 L 519.99995 290.4655 C 514.49995 287.82252 505.85952 282.95654 500.79878 279.65104 C 493.51214 274.89171 492.1255 273.48735 494.13276 272.903 C 495.52685 272.49715 503.09604 270.64452 510.95503 268.78581 C 538.41289 262.29182 541.36726 258.75265 523.26557 254.03776 C 503.74695 248.95381 477.88447 247.42539 411.33393 247.42058 z M 407.55659 253.78581 C 409.52535 253.87588 412.0925 254.6582 414.84565 256.03776 C 423.57538 260.41211 438.66596 269.81784 438.66596 270.88347 C 438.66596 274.19868 415.90693 285.35856 409.33393 285.26628 C 406.76729 285.23028 399.06864 283.16848 392.22651 280.68425 C 377.72789 275.42006 373.13503 272.73703 374.13862 270.12175 C 374.86956 268.21695 399.92205 255.40629 405.80268 253.93034 C 406.31068 253.80284 406.90034 253.75579 407.55659 253.78581 z " />
    <path
       style="fill:#0066ff"
       d="m 530.07851,283.41145 c 2.04728,-1.52025 2.28865,-2.42586 1.15499,-4.33333 -2.51759,-4.236 -10.0173,-7.27951 -16.34944,-6.63488 -7.66637,0.78046 -9.45025,2.63865 -6.11921,6.37412 5.33551,5.9833 16.26914,8.34001 21.31366,4.59409 z"
       id="path8" />
    <path
       style="fill:#00ff00"
       d="m 301.00001,283.38165 c 3.85,-1.79243 7,-3.87116 7,-4.6194 0,-2.34108 -7.62185,-5.42891 -13.40046,-5.42891 -4.54919,0 -6.36547,0.83259 -10.2159,4.68302 -3.86787,3.86788 -4.39646,5.0283 -3.03674,6.66667 2.49261,3.00341 11.71904,2.39246 19.6531,-1.30138 z"
       id="path9" />
    <path
       style="fill:#ff0000"
       d="m 420.00001,275.61392 c 4.08346,-1.65426 7.33333,-3.81551 7.33333,-4.87685 0,-3.13252 -13.65733,-7.93837 -22.758,-8.00826 -9.40857,-0.0722 -21.70917,3.19988 -22.80965,6.06769 -0.99936,2.6043 -0.68468,2.8504 8.44403,6.60379 10.02327,4.12121 19.96859,4.19253 29.79029,0.21363 z"
       id="path10" />
  </g>
</svg>
